<svg xmlns="http://www.w3.org/2000/svg" width="16" height="16" viewBox="0 0 16 16">
    <g fill="none" fill-rule="evenodd">
        <g fill="#F68B1E" fill-rule="nonzero">
            <g>
                <g>
                    <g>
                        <path d="M15.425 0c-.09 0-.177.02-.256.06L10.84 2.225 5.945.05 5.919.042c-.022-.008-.044-.015-.067-.02-.023-.007-.046-.011-.07-.015-.046-.004-.092-.004-.139 0-.023.004-.046.008-.069.014-.023.006-.045.013-.067.021L5.48.049.339 2.334C.133 2.426 0 2.631 0 2.857v12.568c0 .193.098.373.26.478.162.106.367.122.543.044l4.91-2.183 4.91 2.183c.008.003.017 0 .026.005.138.062.297.058.432-.01.01-.004.02 0 .029-.006l4.57-2.285c.193-.097.316-.295.316-.512V.572c0-.316-.256-.572-.571-.572zM5.142 12.768l-4 1.777V3.228l4-1.777v11.317zm5.141 1.777l-3.999-1.777V1.451l3.999 1.777v11.317zm4.57-1.759L11.426 14.5V3.21l3.427-1.714v11.29z" transform="translate(-32 -214) translate(16 142) translate(16 70) translate(0 2)"/>
                    </g>
                </g>
            </g>
        </g>
    </g>
</svg>
