<?xml version="1.0" encoding="UTF-8"?>
<svg width="75px" height="20px" viewBox="0 0 75 20" version="1.1" xmlns="http://www.w3.org/2000/svg" xmlns:xlink="http://www.w3.org/1999/xlink">
    <title>Logo - mobile </title>
    <g id="Logo---mobile-" stroke="none" stroke-width="1" fill="none" fill-rule="evenodd">
        <g id="JumiaFood_Logo_Orange" fill="#FF9900" fill-rule="nonzero">
            <g id="Group" transform="translate(0.709037, 0.000000)">
                <g transform="translate(18.142999, 4.254220)">
                    <path d="M1.92503476,7.76708044 L1.92503476,12.8665144 L0.0243992056,12.8665144 L0.0243992056,4.44566038 C0.0125124131,3.75747766 0.0788282026,3.07054618 0.220844091,2.39737835 C0.323445879,1.89125124 0.558053625,1.42141013 0.900893744,1.03477656 C1.25562066,0.671290963 1.7023138,0.41040715 2.19405164,0.281529295 C2.85470705,0.109483615 3.53663357,0.0294041708 4.2191857,0.0437934459 L11.7241311,0.0437934459 L11.7241311,1.93504469 L4.22106256,1.93504469 C3.57041708,1.86560079 2.92227408,2.08143992 2.44304866,2.52688183 C2.04640516,3.10245283 1.86372393,3.79876862 1.92691162,4.49508441 L1.92691162,5.88771599 L9.34489573,5.88771599 L9.34489573,7.76958292 L1.92503476,7.76708044 Z" id="Path_2338_42_"></path>
                    <path d="M17.2421053,12.8665144 C16.56143,12.8809037 15.8813803,12.8014499 15.2219762,12.631281 C14.7296127,12.50428 14.2816683,12.2433962 13.9281927,11.8780338 C13.5859782,11.4945283 13.3526216,11.0271897 13.2506455,10.5241907 C13.1067527,9.84852036 13.0404369,9.15846077 13.0523237,8.46714995 L13.0523237,4.44566038 C13.0410626,3.75747766 13.108004,3.07054618 13.2506455,2.39737835 C13.351996,1.89125124 13.5859782,1.42141013 13.9281927,1.03477656 C14.2829196,0.670039722 14.7302383,0.409781529 15.2219762,0.281529295 C15.8813803,0.109483615 16.5608044,0.0294041708 17.2421053,0.0437934459 L21.3981033,0.0437934459 C22.0850348,0.0287785501 22.7713406,0.108857994 23.4363754,0.281529295 C23.9274876,0.411032771 24.3741807,0.671290963 24.728282,1.03477656 C25.0711221,1.42078451 25.3051043,1.89125124 25.4077061,2.39737835 C25.5497219,3.07054618 25.6154121,3.75810328 25.6028997,4.44566038 L25.6028997,8.46777557 C25.6166634,9.15846077 25.5509684,9.84852036 25.4077061,10.5248163 C25.3044786,11.0284409 25.0704965,11.4951539 24.728282,11.8786594 C24.3741807,12.2427706 23.9274876,12.5036544 23.4363754,12.6319067 C22.770715,12.8027011 22.0850348,12.8815293 21.3981033,12.86714 L17.2421053,12.8665144 Z M23.7035154,4.43439921 C23.7116485,4.02399206 23.6753625,3.61421053 23.595283,3.21193644 C23.5452334,2.92665343 23.418858,2.66013903 23.2305462,2.44054618 C23.0384806,2.24285005 22.7926117,2.10521351 22.5235948,2.04577954 C22.1582324,1.962572 21.7841112,1.92440914 21.4099901,1.9325422 L17.2464846,1.9325422 C16.8473386,1.92253227 16.4481927,1.96069513 16.058431,2.04577954 C15.7906653,2.10145978 15.5472989,2.23972195 15.3621152,2.44054618 C15.1850645,2.66326713 15.0712016,2.92978153 15.03429,3.21193644 C14.9742304,3.61671301 14.9460775,4.0252433 14.9504568,4.43439921 L14.9504568,8.46214499 C14.9448262,8.89006951 14.9729791,9.31736842 15.03429,9.7409136 C15.070576,10.0211917 15.1838133,10.2852036 15.3621152,10.5041708 C15.5498014,10.6987388 15.7931678,10.8301192 16.058431,10.8807944 C16.4494439,10.9577458 16.8479643,10.9921549 17.2464846,10.9840218 L21.4099901,10.9840218 C21.7841112,10.9909037 22.1576068,10.9564945 22.5235948,10.8807944 C22.7907349,10.8263654 23.0366038,10.6956107 23.2305462,10.5041708 C23.4201092,10.2883317 23.5464846,10.0243198 23.595283,9.7409136 C23.6766137,9.3198709 23.7128997,8.89132075 23.7035154,8.46214499 L23.7035154,4.43439921 Z" id="Path_2339_42_"></path>
                    <path d="M31.6476465,12.8665144 C30.9650943,12.8809037 30.2844191,12.8014499 29.623138,12.631281 C29.1320258,12.5030288 28.6853327,12.2427706 28.331857,11.8780338 C27.9896425,11.4945283 27.7550348,11.0271897 27.6518073,10.5241907 C27.5091658,9.84789474 27.4434757,9.15783515 27.4553625,8.46714995 L27.4553625,4.44566038 C27.4447269,3.75747766 27.5104171,3.07054618 27.6518073,2.39737835 C27.7544091,1.89125124 27.9896425,1.42141013 28.331857,1.03477656 C28.6859583,0.671290963 29.1320258,0.41040715 29.623138,0.281529295 C30.2837934,0.109483615 30.9650943,0.0294041708 31.6476465,0.0437934459 L35.7986395,0.0437934459 C36.4861966,0.0287785501 37.1725025,0.108857994 37.8381629,0.281529295 C38.3292751,0.411032771 38.7759682,0.671290963 39.1300695,1.03477656 C39.4729096,1.42078451 39.7075174,1.89062562 39.8094935,2.39737835 C39.9515094,3.07054618 40.0178252,3.75810328 40.0059384,4.44566038 L40.0059384,8.46777557 C40.0184508,9.15846077 39.9527607,9.84852036 39.8094935,10.5248163 C39.7068918,11.0284409 39.472284,11.4957795 39.1300695,11.8786594 C38.7759682,12.2427706 38.3292751,12.5036544 37.8381629,12.6319067 C37.1725025,12.8027011 36.4861966,12.8821549 35.7986395,12.86714 L31.6476465,12.8665144 Z M38.108431,4.43439921 C38.1153128,4.02399206 38.0796524,3.61483615 38.0020755,3.21193644 C37.9507746,2.92602781 37.8237736,2.65951341 37.6329593,2.44054618 C37.442145,2.24285005 37.1975273,2.10583913 36.929136,2.04577954 C36.5637736,1.96319762 36.1890268,1.926286 35.81428,1.93504469 L31.650149,1.93504469 C31.2516286,1.92503476 30.8537339,1.96319762 30.4645978,2.04828203 C30.1962066,2.10333664 29.9515889,2.24159881 29.7657795,2.44304866 C29.5881033,2.66514399 29.4754916,2.93228401 29.4404568,3.21443893 C29.379146,3.61921549 29.3516187,4.02774578 29.3566236,4.43690169 L29.3566236,8.46214499 C29.3503674,8.89006951 29.3778947,9.31736842 29.4404568,9.7409136 C29.4742403,10.0211917 29.5874777,10.2858292 29.7657795,10.5041708 C29.9540914,10.6987388 30.1980834,10.8307448 30.4645978,10.8807944 C30.8549851,10.9577458 31.2522542,10.9921549 31.650149,10.9840218 L35.81428,10.9840218 C36.1884012,10.9909037 36.5625223,10.9564945 36.929136,10.8807944 C37.1950248,10.8257398 37.4396425,10.6949851 37.6329593,10.5041708 C37.8243992,10.2889573 37.9520258,10.0249454 38.0020755,9.7409136 C38.0815293,9.31924528 38.1171897,8.89069513 38.108431,8.46214499 L38.108431,4.43439921 Z" id="Path_2340_42_"></path>
                    <path d="M41.94286,12.8665144 L41.94286,0.0475471698 L50.6458689,0.0475471698 C51.3340516,0.0325322741 52.0209831,0.112611718 52.6866435,0.285283019 C53.1777557,0.415412115 53.6250745,0.675670308 53.9810526,1.03853029 C54.3232671,1.42516385 54.5572493,1.89500497 54.6604767,2.40113208 C54.7993644,3.07367428 54.8638034,3.75935452 54.851291,4.44566038 L54.851291,8.46777557 C54.8631778,9.15846077 54.7974876,9.84852036 54.6548461,10.5248163 C54.550993,11.0278153 54.3163853,11.4951539 53.975422,11.8786594 C53.6200695,12.242145 53.1727507,12.5030288 52.6810129,12.6319067 C52.0147269,12.8027011 51.3277954,12.8815293 50.6402383,12.86714 L41.94286,12.8665144 Z M52.9556604,4.43439921 C52.9637934,4.02774578 52.9281331,3.62109235 52.8486792,3.22194638 C52.7967527,2.93916584 52.6697517,2.67577954 52.4801887,2.4593148 C52.2862463,2.25911619 52.0385005,2.11835154 51.7669811,2.05328699 C51.3997418,1.9657001 51.0224926,1.92566038 50.6446177,1.9325422 L43.8447468,1.9325422 L43.8447468,10.9840218 L50.6446177,10.9840218 C50.9949652,10.9890268 51.3440616,10.9546177 51.6862761,10.8807944 C51.9552929,10.8226117 52.2024131,10.6887289 52.3976068,10.4941609 C52.598431,10.2789474 52.7416981,10.0174379 52.816147,9.73278054 C52.9187488,9.32237339 52.9656703,8.90007944 52.9550348,8.4777855 L52.9550348,4.43439921 L52.9556604,4.43439921 Z" id="Path_2341_42_"></path>
                </g>
                <g>
                    <path d="M14.8672493,2.69016882 C14.7709037,2.5350149 14.6657994,2.38611718 14.5519364,2.24347567 C14.3986594,2.02388282 14.22286,1.82118173 14.0264151,1.6385005 L13.8424826,1.45456802 L13.4220655,1.11297915 L13.0016485,0.823942403 L12.7651639,0.692562066 C11.9537339,0.239612711 11.0397021,0.00437934459 10.1106554,0.00938430983 C9.18160874,0.000625620655 8.26632572,0.236484608 7.45677259,0.692562066 L7.22028798,0.823942403 L6.77359484,1.11297915 L6.35317776,1.45456802 L6.16924528,1.6385005 C5.9728004,1.82055611 5.79700099,2.0232572 5.64372393,2.24347567 C5.14447865,2.89224429 4.80226415,3.64736842 4.64523337,4.45066534 C4.56077458,4.82165839 4.51698113,5.20078451 4.51385303,5.58116187 C4.52010924,6.14296922 4.60894737,6.70102284 4.7766137,7.23717974 C4.85731877,7.49681231 4.95366435,7.75143992 5.06565045,7.9991857 L5.32841112,8.47215492 L5.48606753,8.68236346 C5.5761569,8.8412711 5.68188679,8.99079444 5.80138034,9.1290566 C6.02848064,9.40870904 6.28435948,9.66396226 6.5633863,9.89106256 L6.98380338,10.2063754 C7.12331678,10.3089772 7.27284012,10.3971897 7.43049652,10.469136 C8.24192651,10.9220854 9.15595829,11.1573188 10.085005,11.152392 C11.0102979,11.1560675 11.9224528,10.9302185 12.7395134,10.4954121 L12.975998,10.3377557 C13.2049752,10.2038729 13.424568,10.0549752 13.6328997,9.89106256 C13.76428,9.75968222 13.9219364,9.65457795 14.0270407,9.52319762 L14.3949057,9.1290566 L14.7108441,8.70863952 L14.8685005,8.47215492 C15.3858888,7.596286 15.6580338,6.59779543 15.6567825,5.58116187 C15.6699206,4.56265144 15.3965243,3.56103277 14.8672493,2.69016882 M14.2103476,4.21480636 L12.1601887,6.21241311 L12.6331579,9.05085402 L10.0837537,7.71077458 L7.56062562,9.05085402 L8.03359484,6.21241311 L5.98343595,4.21480636 L8.82187686,3.79438928 L10.1094042,1.21870904 L11.3706554,3.79438928 L14.2103476,4.21480636 Z" id="Shape"></path>
                    <g transform="translate(0.000000, 8.070506)" id="Path">
                        <path d="M0.99285998,5.44290184 C0.804548163,5.44227408 0.614985104,5.3853426 0.450446872,5.26772592 C0.0275273088,4.96555114 -0.0700695134,4.37809335 0.231479643,3.95517378 L2.76586892,0.405402185 C3.06741807,-0.0175173784 3.65550149,-0.115739821 4.07842105,0.186434955 C4.50134062,0.488609732 4.59893744,1.07606753 4.29738828,1.49898709 L1.76299901,5.04875869 C1.57844091,5.3065144 1.28752731,5.44352532 0.99285998,5.44290184 Z"></path>
                        <path d="M6.90935452,9.61704921 C6.7210427,9.61641509 6.53147964,9.55948361 6.36694141,9.44186693 C5.94402185,9.13969215 5.84642502,8.55223436 6.14797418,8.1293148 L8.68236346,4.5795432 C8.98391261,4.15662363 9.57137041,4.05840119 9.99491559,4.36057597 C10.4178352,4.66275074 10.515432,5.25020854 10.2138828,5.6731281 L7.67949355,9.2228997 C7.49493545,9.48128103 7.20402185,9.61829196 6.90935452,9.61704921 Z"></path>
                        <path d="M1.01350546,11.7773173 C0.825819265,11.7766832 0.636881827,11.7203774 0.472969215,11.6033863 C0.0494240318,11.3024628 -0.0494240318,10.715005 0.251499503,10.2914598 L5.2458292,3.26573982 C5.54675273,2.84219464 6.13421053,2.74272095 6.55775571,3.04427011 C6.98130089,3.34519364 7.08014896,3.93265144 6.77922542,4.35619662 L1.78489573,11.3819166 C1.60033764,11.6409235 1.30942403,11.7785601 1.01350546,11.7773173 Z"></path>
                    </g>
                </g>
            </g>
        </g>
    </g>
</svg>