<?xml version="1.0" encoding="UTF-8"?>
<svg xmlns="http://www.w3.org/2000/svg" width="24" height="24" viewBox="0 0 24 24">
    <g fill="none" fill-rule="evenodd">
        <g fill="#F68B1E">
            <path d="M10.843 3.365c.868-.634 2.07-.422 2.684.474.615.897.41 2.136-.458 2.772-.045.053-.094.103-.146.15h.01c-.131 5.85 3.164 6.136 3.619 6.147h.052c2.679.051 3.9-2.805 4.147-3.47-.394-.377-.618-.906-.618-1.458 0-1.1.86-1.99 1.924-1.99 1.055-.007 1.919.857 1.943 1.944.023 1.097-.82 2.007-1.883 2.033L19.19 19.72c.001.008.006.017.006.025 0 .695-3.233 1.255-7.223 1.255-3.99 0-7.227-.562-7.227-1.255L1.808 9.962C1.292 9.93.81 9.684.47 9.281c-.697-.829-.61-2.086.192-2.805.804-.722 2.02-.632 2.718.198.698.828.612 2.085-.19 2.805.28.733 1.504 3.479 4.134 3.43h.051c.455-.012 3.75-.299 3.617-6.148h.012c-.044-.038-.084-.081-.125-.124-.193-.134-.36-.304-.496-.5-.614-.897-.409-2.136.46-2.772zm1.438 9.514c-1.83-.06-3.361 1.424-3.42 3.313-.057 1.89 1.38 3.47 3.21 3.53 1.86.029 3.39-1.503 3.42-3.42 0-1.85-1.42-3.364-3.21-3.423zm-.21.968l.741 1.497 1.652.24-1.197 1.166.281 1.645-1.478-.776-1.476.776.281-1.645-1.193-1.166 1.651-.24.737-1.497z"/>
        </g>
    </g>
</svg>
